<svg id="icon" height="512" viewBox="0 0 128 128" width="512" xmlns="http://www.w3.org/2000/svg"><rect fill="#eeefee" height="50.229" rx="4.482" width="84" x="22" y="43.435"/><path d="m22 58.775h84v19.46h-84z" fill="#575b6d"/><path d="m93.368 43.818-2.757-7.229a3.5 3.5 0 0 0 -3.27-2.253h-19.147a3.5 3.5 0 0 0 -3.27 2.253l-2.757 7.229z" fill="#eeefee"/><circle cx="77.767" cy="69.204" fill="#414451" r="20.025"/><path d="m41.187 39.417h-6.241a1.653 1.653 0 0 0 -1.653 1.653v2.366h9.547v-2.367a1.653 1.653 0 0 0 -1.653-1.652z" fill="#575b6d"/><circle cx="77.767" cy="69.204" fill="#575b6d" r="16.881"/><path d="m77.767 81.805a12.6 12.6 0 1 1 12.6-12.6 12.616 12.616 0 0 1 -12.6 12.6z" fill="#69b0ee"/><rect fill="#bbbbcd" height="1.237" rx=".619" width="19.643" x="68.129" y="37.491"/><rect fill="#bbbbcd" height="1.237" rx=".619" width="19.643" x="68.129" y="40.861"/><circle cx="82.629" cy="65.581" fill="#eeefee" r="2.925"/></svg>