<svg enable-background="new 0 0 110 110" height="512" viewBox="0 0 110 110" width="512" xmlns="http://www.w3.org/2000/svg"><path d="m19.9010105 76.4447556c-3.2061939-5.849762-4.9010105-12.4892655-4.9010105-19.200634 0-22.0562325 17.9439659-40.0001984 40-40.0001984s40 17.943964 40 40.0001984c0 6.396904-1.4653168 12.5095177-4.3550644 18.1686974l-2.8968887-1.4794159c2.6536942-5.1966171 3.9993057-10.8117218 3.9993057-16.6892815 0-20.2627487-16.4848022-36.747551-36.7473526-36.747551s-36.7473526 16.4848003-36.7473526 36.747551c0 6.1666145 1.5562439 12.2653313 4.500782 17.637043z" fill="#64798a"/><path d="m90.6191025 70.8451004-2.9393234-1.7220383v-1.1587143c0-.4916382-.1653137-.9690704-.4693832-1.3554916l-1.20784-1.5348663-10.1276932 28.109108.6609039.0192184c.6718292.0195236 1.3154755-.2702255 1.7462158-.7861023l.6453705-.7729416 3.4043579.6628189c1.2457275.2425613 2.4863892-.4415588 2.946106-1.6245041l6.4602127-16.6232452c.4665527-1.2005463-.0076142-2.5622101-1.118927-3.2132416z" fill="#e6e9ef"/><path d="m86.0371094 64.6636353c-.8343048-.9542465-2.8733673-2.5325165-7.1051025-2.2580376-.5288696.0342941-.9906158.3792877-1.178894.8746758l-9.6645889 25.4338837c-.1672363.4402008-.0958099.9334106.1902008 1.3074875.8925323 1.1673126 3.1206284 3.5248032 6.5810928 3.5632553.5744476.0063705 1.0951767-.3417587 1.2987289-.8789291l10.111557-26.6834564c.1751327-.4619981.0922699-.9869692-.2329941-1.3588792z" fill="#64798a"/><path d="m19.3807964 70.8451004 2.9393272-1.7220383v-1.1587143c0-.4916382.1653137-.9690704.4693851-1.3554916l1.2078323-1.5348663 10.1276932 28.109108-.6609001.0192184c-.6718292.0195236-1.3154793-.2702255-1.7462158-.7861023l-.6453705-.7729416-3.4043617.6628189c-1.2457199.2425613-2.4863834-.4415588-2.946106-1.6245041l-6.4602126-16.6232452c-.4665508-1.2005463.0076142-2.5622101 1.1189289-3.2132416z" fill="#e6e9ef"/><path d="m23.9627914 64.6636353c.8343086-.9542465 2.8733635-2.5325165 7.1051025-2.2580376.5288715.0342941.9906158.3792877 1.1788979.8746758l9.6645813 25.4338837c.1672363.4402008.0958099.9334106-.1902008 1.3074875-.8925323 1.1673126-3.1206245 3.5248032-6.5810852 3.5632553-.5744514.0063705-1.0951805-.3417587-1.2987366-.8789291l-10.111557-26.6834564c-.175127-.4619981-.0922679-.9869692.2329979-1.3588792z" fill="#64798a"/><path d="m55 16.4150181c-12.1479836 0-23.0717163 5.3349609-30.5573254 13.7826557l3.4763947 3.4763947c6.5898647-7.5616875 16.2865429-12.3486043 27.0809307-12.3486043s20.4910889 4.7869167 27.0809555 12.3486042l3.4763718-3.4763947c-7.4855881-8.4476947-18.4093476-13.7826556-30.5573273-13.7826556z" fill="#e56353"/></svg>