<?xml version="1.0" encoding="iso-8859-1"?>
<!-- Generator: Adobe Illustrator 19.0.0, SVG Export Plug-In . SVG Version: 6.00 Build 0)  -->
<svg version="1.1" id="Layer_1" xmlns="http://www.w3.org/2000/svg" xmlns:xlink="http://www.w3.org/1999/xlink" x="0px" y="0px"
	 viewBox="0 0 512 512" style="enable-background:new 0 0 512 512;" xml:space="preserve">
<g>
	<path style="fill:#ECF0F1;" d="M371.098,512H140.901c-14.433,0-26.138-11.705-26.138-26.147V26.147
		C114.762,11.705,126.468,0,140.901,0h230.197c14.442,0,26.147,11.705,26.147,26.147v459.705
		C397.245,500.295,385.54,512,371.098,512"/>
	<polygon style="fill:#38454F;" points="114.759,441.379 397.241,441.379 397.241,52.966 114.759,52.966 	"/>
	<g>
		<path style="fill:#546A79;" d="M291.31,35.31h-44.138c-4.882,0-8.828-3.946-8.828-8.828s3.946-8.828,8.828-8.828h44.138
			c4.882,0,8.828,3.946,8.828,8.828S296.192,35.31,291.31,35.31"/>
		<path style="fill:#546A79;" d="M220.69,35.31h-8.828c-4.882,0-8.828-3.946-8.828-8.828s3.946-8.828,8.828-8.828h8.828
			c4.882,0,8.828,3.946,8.828,8.828S225.571,35.31,220.69,35.31"/>
	</g>
	<g>
		<path style="fill:#BDC3C7;" d="M105.931,97.103c-4.882,0-8.828-3.946-8.828-8.828v-8.828c0-4.882,3.946-8.828,8.828-8.828
			c4.882,0,8.828,3.946,8.828,8.828v8.828C114.759,93.158,110.813,97.103,105.931,97.103"/>
		<path style="fill:#BDC3C7;" d="M105.931,132.414c-4.882,0-8.828-3.946-8.828-8.828v-8.828c0-4.882,3.946-8.828,8.828-8.828
			c4.882,0,8.828,3.946,8.828,8.828v8.828C114.759,128.468,110.813,132.414,105.931,132.414"/>
		<path style="fill:#BDC3C7;" d="M105.931,167.724c-4.882,0-8.828-3.946-8.828-8.828v-8.828c0-4.882,3.946-8.828,8.828-8.828
			c4.882,0,8.828,3.946,8.828,8.828v8.828C114.759,163.778,110.813,167.724,105.931,167.724"/>
		<path style="fill:#BDC3C7;" d="M282.483,476.69c0,14.627-11.855,26.483-26.483,26.483c-14.627,0-26.483-11.855-26.483-26.483
			c0-14.627,11.855-26.483,26.483-26.483C270.627,450.207,282.483,462.062,282.483,476.69"/>
	</g>
	<path style="fill:#ED7161;" d="M388.414,97.103c-58.5,0-105.931,41.101-105.931,91.807c0,18.688,6.594,34.931,17.655,49.434
		c-1.457,16.755-5.764,41.472-17.655,52.965c0,0,37.191-3.293,61.793-17.655c13.665,5.57,28.036,8.828,44.138,8.828
		c58.5,0,105.931-42.867,105.931-93.572S446.914,97.103,388.414,97.103"/>
	<path style="fill:#4482C3;" d="M123.586,203.034c58.5,0,105.931,41.101,105.931,91.807c0,18.688-6.594,34.931-17.655,49.434
		c1.457,16.755,5.764,41.472,17.655,52.966c0,0-37.191-3.293-61.793-17.655c-13.665,5.57-28.036,8.828-44.138,8.828
		c-58.5,0-105.931-42.867-105.931-93.572S65.086,203.034,123.586,203.034"/>
	<g>
		<path style="fill:#FFFFFF;" d="M388.414,162.428c4.988-11.017,16.013-21.186,29.263-21.186c17.858,0,30.711,14.23,32.335,31.188
			c0,0,0.865,4.211-1.05,11.794c-2.613,10.319-8.766,19.491-17.055,26.483l-43.493,36.467l-43.493-36.467
			c-8.289-6.991-14.442-16.163-17.055-26.483c-1.916-7.583-1.05-11.794-1.05-11.794c1.624-16.958,14.477-31.188,32.335-31.188
			C372.401,141.241,383.426,151.411,388.414,162.428"/>
		<path style="fill:#FFFFFF;" d="M141.241,264.828H79.448c-4.882,0-8.828-3.946-8.828-8.828s3.946-8.828,8.828-8.828h61.793
			c4.882,0,8.828,3.946,8.828,8.828S146.123,264.828,141.241,264.828"/>
		<path style="fill:#FFFFFF;" d="M167.724,335.448H79.448c-4.882,0-8.828-3.946-8.828-8.828c0-4.882,3.946-8.828,8.828-8.828h88.276
			c4.882,0,8.828,3.946,8.828,8.828C176.552,331.502,172.606,335.448,167.724,335.448"/>
		<path style="fill:#FFFFFF;" d="M185.379,300.138H79.448c-4.882,0-8.828-3.946-8.828-8.828c0-4.882,3.946-8.828,8.828-8.828
			h105.931c4.882,0,8.828,3.946,8.828,8.828C194.207,296.192,190.261,300.138,185.379,300.138"/>
	</g>
</g>
<g>
</g>
<g>
</g>
<g>
</g>
<g>
</g>
<g>
</g>
<g>
</g>
<g>
</g>
<g>
</g>
<g>
</g>
<g>
</g>
<g>
</g>
<g>
</g>
<g>
</g>
<g>
</g>
<g>
</g>
</svg>
