<?xml version="1.0" encoding="iso-8859-1"?>
<!-- Generator: Adobe Illustrator 19.0.0, SVG Export Plug-In . SVG Version: 6.00 Build 0)  -->
<svg version="1.1" id="Capa_1" xmlns="http://www.w3.org/2000/svg" xmlns:xlink="http://www.w3.org/1999/xlink" x="0px" y="0px"
	 viewBox="0 0 512 512" style="enable-background:new 0 0 512 512;" xml:space="preserve">
<path d="M370.923,354.141H201.157c-4.142,0-7.5-3.358-7.5-7.5V150.548c0-4.142,3.358-7.5,7.5-7.5h169.766c4.142,0,7.5,3.358,7.5,7.5
	v196.093C378.423,350.783,375.065,354.141,370.923,354.141z M208.657,339.141h154.766V158.048H208.657V339.141z"/>
<path style="fill:#53515E;" d="M486.641,416.378V114.326c0-19.114-15.197-34.608-33.944-34.608H59.304
	c-18.747,0-33.944,15.495-33.944,34.608v301.85L486.641,416.378z"/>
<path style="fill:#474756;" d="M258.302,328.366h106.735c-0.195,1.663-0.306,3.351-0.306,5.067c0,23.82,19.31,43.13,43.13,43.13
	s43.13-19.31,43.13-43.13c0-1.769-0.119-3.509-0.326-5.222c12.4-1.371,22.047-11.879,22.047-24.645V86.379
	c-5.613-4.186-12.529-6.662-20.015-6.662H216.28v206.627C216.28,309.552,235.094,328.366,258.302,328.366z"/>
<path style="fill:#DFE2EA;" d="M301.253,413.939L301.253,413.939c-38.353,0-54.059,0-90.781,0l0,0H5.002
	c-2.762,0-5.002,2.239-5.002,5.002v11.349c0,27,21.888,48.888,48.888,48.888h414.224c27,0,48.888-21.888,48.888-48.888v-11.349
	c0-2.762-2.239-5.002-5.002-5.002H301.253z"/>
<path style="fill:#C7CAD3;" d="M2.784,446.558c6.705,19,24.81,32.619,46.104,32.619h414.224c21.295,0,39.4-13.619,46.104-32.619
	H301.253c-38.353,0-54.059,0-90.781,0H2.784z"/>
<rect x="63.922" y="117.759" style="fill:#FFFFFF;" width="387.85" height="258.81"/>
<path style="fill:#E9EBF2;" d="M451.772,117.757H216.28v169.117c0,23.208,18.814,42.022,42.022,42.022h106.735
	c-0.195,1.663-0.306,3.351-0.306,5.067c0,21.525,15.77,39.364,36.386,42.601h13.488c20.616-3.238,36.386-21.076,36.386-42.601
	c0-1.769-0.119-3.509-0.326-5.222c0.375-0.041,0.738-0.117,1.107-0.175L451.772,117.757L451.772,117.757z"/>
<circle style="fill:#00AAF0;" cx="407.88" cy="333.789" r="15.849"/>
<path style="fill:#AAE1FF;" d="M430.999,32.821H257.993c-11.457,0-20.745,9.288-20.745,20.745v229.007
	c0,11.457,9.288,20.745,20.745,20.745h135.636l14.265,14.265l14.265-14.265h8.84c11.457,0,20.745-9.288,20.745-20.745V53.566
	C451.744,42.109,442.456,32.821,430.999,32.821z"/>
<g>
	<path style="fill:#6F4BEF;" d="M430.999,32.821H257.993c-11.457,0-20.745,9.288-20.745,20.745v63.785h214.496V53.566
		C451.744,42.109,442.456,32.821,430.999,32.821z"/>
	<circle style="fill:#6F4BEF;" cx="421.46" cy="150.549" r="7.925"/>
</g>
<path style="fill:#00AAF0;" d="M389.766,158.473H271.365c-4.377,0-7.925-3.548-7.925-7.925s3.548-7.925,7.925-7.925h118.401
	c4.377,0,7.925,3.548,7.925,7.925S394.143,158.473,389.766,158.473z"/>
<path style="fill:#DFE2EA;" d="M167.432,262.814h-41.183c-4.377,0-7.925-3.548-7.925-7.925c0-4.377,3.548-7.925,7.925-7.925h41.183
	c4.377,0,7.925,3.548,7.925,7.925C175.357,259.266,171.809,262.814,167.432,262.814z"/>
<circle style="fill:#6F4BEF;" cx="271.37" cy="186.559" r="7.925"/>
<circle style="fill:#FFDC64;" cx="101.48" cy="254.889" r="7.925"/>
<path style="fill:#DFE2EA;" d="M167.432,292.4h-41.183c-4.377,0-7.925-3.548-7.925-7.925c0-4.377,3.548-7.925,7.925-7.925h41.183
	c4.377,0,7.925,3.548,7.925,7.925C175.357,288.852,171.809,292.4,167.432,292.4z"/>
<circle style="fill:#FFDC64;" cx="101.48" cy="284.479" r="7.925"/>
<path style="fill:#DFE2EA;" d="M167.432,324.099h-41.183c-4.377,0-7.925-3.548-7.925-7.925c0-4.377,3.548-7.925,7.925-7.925h41.183
	c4.377,0,7.925,3.548,7.925,7.925C175.357,320.551,171.809,324.099,167.432,324.099z"/>
<circle style="fill:#FFDC64;" cx="101.48" cy="316.179" r="7.925"/>
<path style="fill:#DFE2EA;" d="M167.432,354.565h-41.183c-4.377,0-7.925-3.548-7.925-7.925c0-4.377,3.548-7.925,7.925-7.925h41.183
	c4.377,0,7.925,3.548,7.925,7.925C175.357,351.017,171.809,354.565,167.432,354.565z"/>
<circle style="fill:#FFDC64;" cx="101.48" cy="346.639" r="7.925"/>
<g>
	<path style="fill:#00AAF0;" d="M421.465,194.485H303.064c-4.377,0-7.925-3.548-7.925-7.925s3.548-7.925,7.925-7.925h118.401
		c4.377,0,7.925,3.548,7.925,7.925S425.842,194.485,421.465,194.485z"/>
	<path style="fill:#00AAF0;" d="M370.923,224.423h-67.858c-4.377,0-7.925-3.548-7.925-7.925s3.548-7.925,7.925-7.925h67.858
		c4.377,0,7.925,3.548,7.925,7.925S375.299,224.423,370.923,224.423z"/>
</g>
<circle style="fill:#FFF082;" cx="284.78" cy="75.729" r="16.351"/>
<path style="fill:#FF9EA4;" d="M162.161,216.499h-55.408c-2.911,0-5.271-2.36-5.271-5.271V155.82c0-2.911,2.36-5.271,5.271-5.271
	h55.408c2.911,0,5.271,2.36,5.271,5.271v55.408C167.432,214.139,165.072,216.499,162.161,216.499z"/>
<g>
</g>
<g>
</g>
<g>
</g>
<g>
</g>
<g>
</g>
<g>
</g>
<g>
</g>
<g>
</g>
<g>
</g>
<g>
</g>
<g>
</g>
<g>
</g>
<g>
</g>
<g>
</g>
<g>
</g>
</svg>
