<?xml version="1.0" encoding="iso-8859-1"?>
<!-- Generator: Adobe Illustrator 19.0.0, SVG Export Plug-In . SVG Version: 6.00 Build 0)  -->
<svg version="1.1" id="Capa_1" xmlns="http://www.w3.org/2000/svg" xmlns:xlink="http://www.w3.org/1999/xlink" x="0px" y="0px"
	 viewBox="0 0 468.397 468.397" style="enable-background:new 0 0 468.397 468.397;" xml:space="preserve">
<path style="fill:#FCD462;" d="M384.612,394.734c-44.332,13.112-87.415-0.624-96.156-29.971
	c-8.741-29.971,19.98-64.312,64.312-77.424l0,0c9.99-3.122,17.483-11.863,17.483-22.478V101.27c0-11.239-9.366-19.98-20.605-18.732
	l-84.293,5.62l-66.185,4.371c-9.99,0.624-17.483,8.741-17.483,18.732v283.473l0,0c1.873,27.473-25.6,56.82-66.185,68.683
	c-44.332,13.112-87.415-0.624-96.156-29.971c-8.741-29.971,19.98-64.312,64.312-77.424h0.624
	c9.99-3.122,17.483-11.863,17.483-22.478V47.573c0-9.99,7.493-18.107,17.483-18.732l146.107-13.737L429.568,0.119
	c11.239-1.249,20.605,7.493,20.605,18.732v304.078C454.543,351.026,426.446,382.87,384.612,394.734z"/>
<g>
</g>
<g>
</g>
<g>
</g>
<g>
</g>
<g>
</g>
<g>
</g>
<g>
</g>
<g>
</g>
<g>
</g>
<g>
</g>
<g>
</g>
<g>
</g>
<g>
</g>
<g>
</g>
<g>
</g>
</svg>
