<?xml version="1.0" encoding="iso-8859-1"?>
<!-- Generator: Adobe Illustrator 19.0.0, SVG Export Plug-In . SVG Version: 6.00 Build 0)  -->
<svg version="1.1" id="Capa_1" xmlns="http://www.w3.org/2000/svg" xmlns:xlink="http://www.w3.org/1999/xlink" x="0px" y="0px"
	 viewBox="0 0 468.293 468.293" style="enable-background:new 0 0 468.293 468.293;" xml:space="preserve">
<path style="fill:#1A76A1;" d="M122.826,96.162H60.387V69.899c0-3.448,2.795-6.244,6.244-6.244h49.951
	c3.448,0,6.244,2.795,6.244,6.244V96.162z"/>
<rect y="131.316" style="fill:#4EBD9E;" width="468.293" height="234.265"/>
<path style="fill:#E0E5E8;" d="M449.561,86.008H18.732C8.386,86.008,0,94.395,0,104.74v26.572h468.293V104.74
	C468.293,94.395,459.906,86.008,449.561,86.008z"/>
<path style="fill:#D4D5DB;" d="M468.293,365.577H0v26.572c0,10.345,8.386,18.732,18.732,18.732h430.829
	c10.345,0,18.732-8.386,18.732-18.732V365.577z"/>
<polygon style="fill:#3B566A;" points="377.937,86.008 247.263,86.008 268.706,57.411 356.493,57.411 "/>
<circle style="fill:#304859;" cx="312.57" cy="248.445" r="99.902"/>
<circle style="fill:#647989;" cx="312.57" cy="248.445" r="80.802"/>
<circle style="fill:#3B566A;" cx="312.57" cy="248.445" r="53.866"/>
<circle style="fill:#E0E5E8;" cx="339.525" cy="227.84" r="20.605"/>
<circle style="fill:#EBEFF2;" cx="282.568" cy="271.229" r="16.44"/>
<g>
</g>
<g>
</g>
<g>
</g>
<g>
</g>
<g>
</g>
<g>
</g>
<g>
</g>
<g>
</g>
<g>
</g>
<g>
</g>
<g>
</g>
<g>
</g>
<g>
</g>
<g>
</g>
<g>
</g>
</svg>
