<?xml version="1.0" encoding="iso-8859-1"?>
<!-- Generator: Adobe Illustrator 19.0.0, SVG Export Plug-In . SVG Version: 6.00 Build 0)  -->
<svg version="1.1" id="Capa_1" xmlns="http://www.w3.org/2000/svg" xmlns:xlink="http://www.w3.org/1999/xlink" x="0px" y="0px"
	 viewBox="0 0 512 512" style="enable-background:new 0 0 512 512;" xml:space="preserve">
<path style="fill:#787780;" d="M512,75.5v195l-30,31H30l-30-31v-195c0-24.901,20.099-45,45-45h422C491.901,30.5,512,50.599,512,75.5
	z"/>
<path style="fill:#57555E;" d="M512,75.5v195l-30,31H256v-271h211C491.901,30.5,512,50.599,512,75.5z"/>
<path style="fill:#57555C;" d="M512,270.5v166c0,24.899-20.099,45-45,45h-15l-30-15H90l-30,15H45c-24.901,0-45-20.101-45-45v-166
	H512z"/>
<path style="fill:#3C3A41;" d="M512,270.5v166c0,24.899-20.099,45-45,45h-15l-30-15H256v-196H512z"/>
<path style="fill:#E5E5E5;" d="M452,346.5v135H60v-135c0-8.401,6.599-15,15-15h45l15,30l15-30h31l15,30l15-30h30l15,30l15-30h30
	l15,30l15-30h31l15,30l15-30h45C445.401,331.5,452,338.099,452,346.5z"/>
<path style="fill:#D9D9D9;" d="M452,346.5v135H256v-120l15-30h30l15,30l15-30h31l15,30l15-30h45
	C445.401,331.5,452,338.099,452,346.5z"/>
<g>
	<circle style="fill:#57555C;" cx="196" cy="105.5" r="15"/>
	<path style="fill:#57555C;" d="M271,105.5c0,8.399-6.599,15-15,15s-15-6.601-15-15c0-8.401,6.599-15,15-15S271,97.099,271,105.5z"
		/>
</g>
<circle style="fill:#3C3A41;" cx="316" cy="105.5" r="15"/>
<path style="fill:#FEDB41;" d="M316,150.5H196c-8.401,0-15,6.599-15,15v60c0,8.399,6.599,15,15,15h120c8.401,0,15-6.601,15-15v-60
	C331,157.099,324.401,150.5,316,150.5z"/>
<path style="fill:#3C3A41;" d="M437,120.5h-60c-8.291,0-15-6.709-15-15s6.709-15,15-15h60c8.291,0,15,6.709,15,15
	S445.291,120.5,437,120.5z"/>
<path style="fill:#57555C;" d="M135,120.5H75c-8.291,0-15-6.709-15-15s6.709-15,15-15h60c8.291,0,15,6.709,15,15
	S143.291,120.5,135,120.5z"/>
<path style="fill:#C8C6CD;" d="M407,240.5c-24.814,0-45-20.186-45-45s20.186-45,45-45s45,20.186,45,45S431.814,240.5,407,240.5z"/>
<path style="fill:#FFFFFF;" d="M105,240.5c-24.814,0-45-20.186-45-45s20.186-45,45-45s45,20.186,45,45S129.814,240.5,105,240.5z"/>
<path style="fill:#3C3A41;" d="M256,120.5v-30c8.401,0,15,6.599,15,15C271,113.899,264.401,120.5,256,120.5z"/>
<path style="fill:#FE9923;" d="M331,165.5v60c0,8.399-6.599,15-15,15h-60v-90h60C324.401,150.5,331,157.099,331,165.5z"/>
<g>
	<path style="fill:#57555C;" d="M135,421.5c8.291,0,15-6.709,15-15v-75h-30v75C120,414.791,126.709,421.5,135,421.5z"/>
	<path style="fill:#57555C;" d="M196,421.5c8.291,0,15-6.709,15-15v-75h-30v75C181,414.791,187.709,421.5,196,421.5z"/>
	<path style="fill:#57555C;" d="M271,331.5v75c0,8.399-6.599,15-15,15s-15-6.601-15-15v-75H271z"/>
</g>
<g>
	<path style="fill:#3C3A41;" d="M316,421.5c8.291,0,15-6.709,15-15v-75h-30v75C301,414.791,307.709,421.5,316,421.5z"/>
	<path style="fill:#3C3A41;" d="M377,421.5c8.291,0,15-6.709,15-15v-75h-30v75C362,414.791,368.709,421.5,377,421.5z"/>
	<path style="fill:#3C3A41;" d="M256,331.5h15v75c0,8.399-6.599,15-15,15V331.5z"/>
</g>
<g>
</g>
<g>
</g>
<g>
</g>
<g>
</g>
<g>
</g>
<g>
</g>
<g>
</g>
<g>
</g>
<g>
</g>
<g>
</g>
<g>
</g>
<g>
</g>
<g>
</g>
<g>
</g>
<g>
</g>
</svg>
