<?xml version="1.0" encoding="iso-8859-1"?>
<!-- Generator: Adobe Illustrator 19.0.0, SVG Export Plug-In . SVG Version: 6.00 Build 0)  -->
<svg version="1.1" id="Capa_1" xmlns="http://www.w3.org/2000/svg" xmlns:xlink="http://www.w3.org/1999/xlink" x="0px" y="0px"
	 viewBox="0 0 468.293 468.293" style="enable-background:new 0 0 468.293 468.293;" xml:space="preserve">
<path style="fill:#64798A;" d="M449.561,390.244H18.732C8.386,390.244,0,381.857,0,371.512V96.78
	c0-10.345,8.386-18.732,18.732-18.732h430.829c10.345,0,18.732,8.386,18.732,18.732v274.732
	C468.293,381.857,459.906,390.244,449.561,390.244z"/>
<g>
	<rect x="18.732" y="203.239" style="fill:#D5D6DB;" width="430.829" height="168.298"/>
	<circle style="fill:#D5D6DB;" cx="190.439" cy="140.613" r="24.976"/>
	<circle style="fill:#D5D6DB;" cx="277.854" cy="140.613" r="24.976"/>
	<circle style="fill:#D5D6DB;" cx="365.268" cy="140.613" r="24.976"/>
	<circle style="fill:#D5D6DB;" cx="103.024" cy="140.613" r="24.976"/>
</g>
<circle style="fill:#DC8744;" cx="103.024" cy="140.613" r="12.488"/>
<circle style="fill:#E56353;" cx="190.439" cy="140.613" r="12.488"/>
<circle style="fill:#27A2DB;" cx="277.854" cy="140.613" r="12.488"/>
<circle style="fill:#44C4A1;" cx="365.268" cy="140.613" r="12.488"/>
<g>
	<rect x="59.317" y="203.239" style="fill:#3A556A;" width="37.463" height="103.874"/>
	<rect x="70.244" y="307.088" style="fill:#3A556A;" width="15.61" height="64.425"/>
	<rect x="132.683" y="307.088" style="fill:#3A556A;" width="15.61" height="64.425"/>
	<rect x="195.122" y="307.088" style="fill:#3A556A;" width="15.61" height="64.425"/>
	<rect x="257.561" y="307.088" style="fill:#3A556A;" width="15.61" height="64.425"/>
	<rect x="320" y="307.088" style="fill:#3A556A;" width="15.61" height="64.425"/>
	<rect x="382.439" y="307.088" style="fill:#3A556A;" width="15.61" height="64.425"/>
	<rect x="121.756" y="203.239" style="fill:#3A556A;" width="37.463" height="103.874"/>
	<rect x="184.195" y="203.239" style="fill:#3A556A;" width="37.463" height="103.874"/>
	<rect x="246.634" y="203.239" style="fill:#3A556A;" width="37.463" height="103.874"/>
	<rect x="309.073" y="203.239" style="fill:#3A556A;" width="37.463" height="103.874"/>
	<rect x="371.512" y="203.239" style="fill:#3A556A;" width="37.463" height="103.874"/>
</g>
<g>
</g>
<g>
</g>
<g>
</g>
<g>
</g>
<g>
</g>
<g>
</g>
<g>
</g>
<g>
</g>
<g>
</g>
<g>
</g>
<g>
</g>
<g>
</g>
<g>
</g>
<g>
</g>
<g>
</g>
</svg>
