<?xml version="1.0" encoding="iso-8859-1"?>
<!-- Generator: Adobe Illustrator 21.0.0, SVG Export Plug-In . SVG Version: 6.00 Build 0)  -->
<svg xmlns="http://www.w3.org/2000/svg" xmlns:xlink="http://www.w3.org/1999/xlink" version="1.1" id="Capa_1" x="0px" y="0px" viewBox="0 0 512 512" style="enable-background:new 0 0 512 512;" xml:space="preserve" width="512" height="512">
<g>
	<g>
		<g>
			<path style="fill:#5E6478;" d="M315.623,32.476h144.111c4.204,0,7.611-3.408,7.611-7.611s-3.408-7.611-7.611-7.611H315.623     c-4.204,0-7.611,3.408-7.611,7.611S311.42,32.476,315.623,32.476z"/>
			<path style="fill:#5E6478;" d="M418.632,93.875c0,4.204,3.408,7.611,7.611,7.611h78.145c4.204,0,7.612-3.408,7.612-7.611     s-3.408-7.611-7.612-7.611h-78.145C422.04,86.264,418.632,89.672,418.632,93.875z"/>
			<path style="fill:#5E6478;" d="M504.388,416.095h-78.145c-4.204,0-7.611,3.408-7.611,7.612c0,4.204,3.408,7.611,7.611,7.611     h78.145c4.204,0,7.612-3.408,7.612-7.611C512,419.503,508.592,416.095,504.388,416.095z"/>
			<path style="fill:#5E6478;" d="M347.085,479.844c-0.012,0-0.023,0-0.035,0l-42.117,0.188c-4.204,0.019-7.596,3.442-7.577,7.646     c0.019,4.192,3.423,7.577,7.611,7.577c0.012,0,0.023,0,0.035,0l42.117-0.188c4.204-0.019,7.596-3.442,7.577-7.646     C354.677,483.229,351.273,479.844,347.085,479.844z"/>
			<path style="fill:#5E6478;" d="M478.328,479.752c-0.007,0-0.016,0-0.024,0l-92.016,0.28c-4.204,0.013-7.601,3.431-7.588,7.635     c0.013,4.196,3.418,7.588,7.611,7.588c0.007,0,0.016,0,0.024,0l92.016-0.28c4.204-0.013,7.601-3.431,7.588-7.635     C485.926,483.144,482.521,479.752,478.328,479.752z"/>
		</g>
		<polygon style="fill:#F9CFBF;" points="246.612,4.06 325.145,120.72 250.672,214.644 201.728,148.213 103.516,4.059   "/>
		<g>
			<g>
				<path style="fill:#E3E6ED;" d="M2.628,464.783c0,0,28.2,66.082,191.411,34.706c47.587-9.148,98.877-40.773,131.643-79.986      c32.451-38.835,76.237-48.371,113.725-63.923c31.49-13.063,36.152-21.549,36.152-21.549      c31.17-26.423,34.272-59.713,22.49-83.309c-9.685-19.395-36.358-30.865-36.358-30.865"/>
			</g>
			<path style="fill:#C2E6FF;" d="M183.494,188.909c7.198-40.184,17.985-40.872,26.635-38.883     c18.744,4.312,17.822,44.314,17.822,44.314c44.243-4.306,60.586-33.767,87.775-65.155c11.406-13.167,30.808-15.783,45.291-6.117     c33.567,22.404,86.217,60.607,97.116,86.432c18.266,43.281-10.217,91.868-65.637,120.398     c-40.346,20.769-69.091,37.844-106.116,73.501c-50.422,48.559-111.388,72.51-164.994,78.51     c-49.716,5.565-114.247,0.932-120.506-26.255c-4.792-20.813,10.147-36.63,41.218-54.928     c15.685-9.237,35.481-19.106,58.926-30.569c43.274-21.158,68.598-84.202,77.892-148.011"/>
			<path style="fill:#6BB7ED;" d="M165.79,366.22l-45.354-9.284c-6.017,5.367-12.483,9.834-19.413,13.222     c-23.444,11.463-43.241,21.332-58.926,30.569c-31.071,18.298-46.01,34.115-41.218,54.928     c6.259,27.188,70.79,31.82,120.506,26.255c53.606-6,114.572-29.951,164.994-78.51c24.024-23.137,44.565-38.448,67.049-52.023     C305.074,314.194,210.072,337.014,165.79,366.22z"/>
			<g>
				<path style="fill:#4EA6E6;" d="M132.3,366.22c2.634-1.737,5.452-3.45,8.424-5.131l-20.288-4.153      c-2.184,1.948-4.43,3.774-6.733,5.477L132.3,366.22z"/>
				<path style="fill:#4EA6E6;" d="M337.443,342.01c-27.401,10.149-60.53,38.253-84.554,61.39      c-50.422,48.559-111.388,72.51-164.994,78.51c-6.469,0.724-13.19,1.274-20,1.625c17.604,0.994,36.421,0.285,53.49-1.625      c53.606-6,114.572-29.951,164.994-78.51c24.024-23.137,44.565-38.448,67.049-52.023      C344.547,345.055,337.443,342.01,337.443,342.01z"/>
			</g>
			<path style="fill:#E3E6ED;" d="M372.051,143.24c0.71-5.681,1.227-8.864,1.227-8.864S372.761,137.559,372.051,143.24     c1.021-4.617,1.425-8.595,1.553-11.621c-4.394-3.039-8.625-5.906-12.587-8.55c-14.483-9.667-33.885-7.051-45.291,6.117     c-27.189,31.388-43.532,60.849-87.775,65.155c0,0,0.922-40.002-17.822-44.313c-8.65-1.99-19.437-1.302-26.635,38.883     l-4.579,33.238c-0.022,0.15-0.045,0.299-0.067,0.449l54.311,3.802C340.726,215.89,366.276,169.342,372.051,143.24z"/>
			<path style="fill:#5E6478;" d="M372.051,143.24c-5.775,26.103-31.325,72.65-138.892,83.159l-54.311-3.802     c-7.847,53.438-26.942,106.267-58.412,134.34l45.354,9.284c44.282-29.207,139.284-52.026,187.639-14.843     c11.081-6.691,22.633-12.961,35.309-19.537l-3.721-6.005C360.567,257.599,368.599,170.855,372.051,143.24z"/>
			<path style="fill:#FDDB33;" d="M458.133,209.501c-9.613-22.777-51.699-55.179-84.529-77.882     c-0.128,3.025-0.532,7.003-1.553,11.621c-3.452,27.615-11.484,114.36,12.966,182.596l3.721,6.005     c1.242-0.644,2.494-1.291,3.758-1.942C447.917,301.369,476.399,252.782,458.133,209.501z"/>
			<path style="fill:#F9C032;" d="M458.133,209.501c-9.613-22.777-51.699-55.179-84.529-77.882     c-0.128,3.025-0.532,7.003-1.553,11.621c-0.368,2.944-0.788,6.566-1.216,10.761c24.313,18.788,47.06,39.514,53.807,55.5     c15.565,36.881-2.821,77.613-42.889,106.506c1.018,3.312,2.104,6.592,3.264,9.829l3.721,6.005     c1.242-0.644,2.494-1.291,3.758-1.942C447.917,301.369,476.399,252.782,458.133,209.501z"/>
		</g>
		<g>
			<path style="fill:#FDDB33;" d="M165.253,365.728c0,0,63.6-41.942,63.6-172.904c0-10.142-2.03-40.595-18.775-43.132     c-15.085-2.286-21.312,7.104-24.864,23.849s-14.037,108.63-36.535,147.156c-18.585,31.824-36.561,46.304-65.726,59.598     c0,0,36.233,16.663,82.838-14.076"/>
			<g>
				<path style="fill:#5E6478;" d="M150.152,358.543c-1.064,0-2.145-0.224-3.176-0.698l-17.365-7.987      c-3.819-1.757-5.491-6.277-3.734-10.096c1.757-3.819,6.275-5.491,10.096-3.734l17.365,7.987      c3.819,1.757,5.491,6.277,3.734,10.096C155.789,356.899,153.032,358.543,150.152,358.543z"/>
			</g>
			<g>
				<path style="fill:#5E6478;" d="M180.27,317.954c-0.832,0-1.678-0.137-2.508-0.427l-20.941-7.309      c-3.969-1.385-6.063-5.725-4.678-9.694c1.386-3.969,5.724-6.064,9.694-4.678l20.941,7.309c3.969,1.385,6.063,5.725,4.678,9.694      C186.361,315.987,183.417,317.954,180.27,317.954z"/>
			</g>
			<g>
				<path style="fill:#5E6478;" d="M196.693,270.761c-0.656,0-1.322-0.085-1.985-0.264l-22.951-6.186      c-4.059-1.094-6.462-5.271-5.369-9.33c1.094-4.058,5.272-6.463,9.33-5.369l22.951,6.186c4.059,1.094,6.462,5.271,5.369,9.33      C203.122,268.523,200.049,270.761,196.693,270.761z"/>
			</g>
		</g>
	</g>
	<path style="fill:#4C5061;" d="M337.443,342.01c0,0,34.505-16.238,44.654-26.387c0,0,1.015,9.134,7.104,16.238   c0,0-25.372,13.193-35.52,19.282L337.443,342.01z"/>
</g>















</svg>
