<svg id="Capa_1" enable-background="new 0 0 379.354 379.354" height="512" viewBox="0 0 379.354 379.354" width="512" xmlns="http://www.w3.org/2000/svg"><g><path d="m367.873 201.081-2.681 1.149-38.802 13.539-96.122 33.839h-167.904c-.562 0-1.113-.122-1.623-.359-7.334-3.416-63.859-30.557-58.906-53.547 4.629-21.449 16.37-24.88 19.301-25.413.433-.067.666-.083.666-.083 82.133 4.047 77.171-15.804 106.048-24.38 28.876-8.56 74.906-45.114 98.37-39.501 23.464 5.612 27.977 29.126 50.975 37.253 23.015 8.127 27.528-4.513 30.242-19.851 2.698-15.354 20.3-24.83 39.252-9.925 4.013 3.147 7.277 8.876 9.925 15.954 9.876 26.344 11.259 71.325 11.259 71.325z" fill="#27a2db"/><path d="m367.865 201.087c-76.306-11.884-108.683 13.519-161.703 28.701-53.021 15.182-80.816 13.781-141.778 3.971-60.962-9.81-62.541-38.061-62.541-38.061-.964 3.374-3.614 19.037 0 24.82 2.43 3.887 5.295 7.557 6.912 9.545.789.97 2.002 1.488 3.249 1.399l.418-.03c.647-.046 1.296.072 1.885.344 1.362.629 2.234 1.992 2.234 3.492v.206c0 1.296.652 2.504 1.735 3.215l20.187 13.249c1.06.695 2.393.824 3.566.344l1.858-.76c1-.409 2.126-.379 3.103.084l1.749.829c.836.396 1.501 1.08 1.874 1.927l1.518 3.451c.375.853 1.046 1.53 1.884 1.935 9.133 4.401 26.991 8.939 33.016 10.405 1.27.309 2.605-.047 3.553-.945l1.688-1.599c.868-.823 2.071-1.195 3.252-1.006l2.452.392c1.08.173 2.036.797 2.627 1.718l2.273 3.535c.708 1.101 1.927 1.766 3.235 1.766h39.443c1.818 0 3.435-1.153 4.027-2.871l.429-1.245c.593-1.718 2.21-2.871 4.028-2.871 1.672 0 3.19.978 3.88 2.501l.142.313c.691 1.523 2.208 2.501 3.88 2.501h22.384c1.458 0 2.814-.746 3.596-1.976l.757-1.193c.757-1.192 2.055-1.931 3.466-1.974l3.269-.1c1.456-.045 2.834.658 3.653 1.862l1.031 1.516c.793 1.166 2.112 1.864 3.523 1.864h22.223c1.675 0 3.195-.982 3.884-2.509l1.111-2.465c.689-1.527 2.208-2.509 3.884-2.509h4.537c1.592 0 3.05.887 3.783 2.3l1.494 2.883c.732 1.413 2.191 2.3 3.783 2.3h23.857c1.384 0 2.681-.672 3.479-1.802l1.581-2.237c.781-1.106 2.042-1.774 3.396-1.801l7.33-.144c1.703-.033 3.262.951 3.965 2.503l.437.966c.687 1.518 2.192 2.513 3.858 2.514 31.224.014 65.22-8.504 78.451-29.877 13.619-21.997-6.807-41.376-6.807-41.376z" fill="#d5d6db"/><path d="m356.615 129.755c-12.623-16.52-33.04-23.031-37.903-.167-4.846 22.865-24.363 23.015-24.363 23.015-41.966 2.698-49.627-22.565-55.505-29.792-5.862-7.211-14.888-10.825-28.427-6.312s.899 17.153.899 17.153c29.693 14.239 6.778 31.125 6.778 31.125-51.891 42.416-101.085 27.528-149.812 27.078-34.456-.316-44.331-13.739-47.145-21.566.433-.067.666-.083.666-.083 16.337.799 33.34-1.465 50.276-5.562 49.56-11.99 97.687-41.848 127.979-54.371 11.391-4.73 15.157-6.085 26.163-3.949 23.684 4.596 27.977 29.126 50.975 37.253 23.015 8.127 27.528-4.513 30.242-19.851 2.698-15.354 20.3-24.83 39.252-9.925 4.013 3.148 7.277 8.876 9.925 15.954z" fill="#d5d6db"/><path d="m200.058 110.273c-.333 15.621-8.876 22.73-8.876 22.73s-33.207 24.447-78.786 37.719c-45.58 13.289-48.565-4.235-48.565-4.235 49.56-11.99 105.935-43.691 136.227-56.214z" fill="#e56353"/><g fill="#d5d6db"><path d="m173.964 117.538c-1.198.869-1.465 2.546-.595 3.744l4.046 6.764c.869 1.198 2.545 1.465 3.744.595 1.198-.869 1.465-2.545.595-3.744l-4.046-6.764c-.87-1.198-2.546-1.465-3.744-.595z"/><path d="m157.146 125.681c-1.198.869-1.465 2.546-.595 3.744l4.046 6.764c.869 1.198 2.546 1.465 3.744.595 1.198-.869 1.465-2.545.595-3.744l-4.046-6.764c-.87-1.198-2.546-1.464-3.744-.595z"/><path d="m141.745 133.825c-1.198.869-1.465 2.546-.595 3.744l4.046 6.764c.869 1.198 2.545 1.465 3.744.595 1.198-.869 1.465-2.545.595-3.744l-4.046-6.764c-.87-1.198-2.546-1.465-3.744-.595z"/><path d="m127.582 139.887c-1.198.869-1.465 2.546-.595 3.744l4.046 6.764c.869 1.198 2.546 1.465 3.744.595 1.198-.869 1.465-2.545.595-3.744l-4.046-6.764c-.87-1.197-2.546-1.464-3.744-.595z"/><path d="m112.181 146.968c-1.198.87-1.465 2.546-.595 3.744l4.046 6.764c.869 1.198 2.545 1.465 3.744.595 1.198-.869 1.465-2.545.595-3.744l-4.046-6.764c-.87-1.197-2.546-1.464-3.744-.595z"/><path d="m93.947 153.873c-1.198.87-1.465 2.546-.595 3.744l4.046 6.764c.869 1.198 2.546 1.465 3.744.595 1.198-.869 1.465-2.545.595-3.744l-4.046-6.764c-.87-1.198-2.546-1.465-3.744-.595z"/></g></g></svg>